<mxfile host="app.diagrams.net" agent="Mozilla/5.0 (X11; Linux x86_64) AppleWebKit/537.36 (KHTML, like Gecko) Chrome/139.0.0.0 Safari/537.36" version="28.2.0">
  <diagram name="Page-1" id="1WKqo7Z3-PeA9DMFxko8">
    <mxGraphModel dx="984" dy="546" grid="1" gridSize="10" guides="1" tooltips="1" connect="1" arrows="1" fold="1" page="1" pageScale="1" pageWidth="850" pageHeight="1100" math="0" shadow="0">
      <root>
        <mxCell id="0" />
        <mxCell id="1" parent="0" />
        <mxCell id="W7zYdzofN13sz3vivxmo-18" value="" style="edgeStyle=orthogonalEdgeStyle;rounded=0;orthogonalLoop=1;jettySize=auto;html=1;startArrow=classic;startFill=1;" edge="1" parent="1" source="W7zYdzofN13sz3vivxmo-1" target="W7zYdzofN13sz3vivxmo-16">
          <mxGeometry relative="1" as="geometry" />
        </mxCell>
        <mxCell id="W7zYdzofN13sz3vivxmo-1" value="Internet" style="ellipse;shape=cloud;whiteSpace=wrap;html=1;" vertex="1" parent="1">
          <mxGeometry x="505" y="100" width="121" height="80" as="geometry" />
        </mxCell>
        <mxCell id="W7zYdzofN13sz3vivxmo-8" style="edgeStyle=orthogonalEdgeStyle;rounded=0;orthogonalLoop=1;jettySize=auto;html=1;exitX=0.75;exitY=1;exitDx=0;exitDy=0;entryX=0;entryY=0.5;entryDx=0;entryDy=0;startArrow=classic;startFill=1;" edge="1" parent="1" source="W7zYdzofN13sz3vivxmo-6" target="W7zYdzofN13sz3vivxmo-2">
          <mxGeometry relative="1" as="geometry" />
        </mxCell>
        <mxCell id="W7zYdzofN13sz3vivxmo-10" value="" style="edgeStyle=orthogonalEdgeStyle;rounded=0;orthogonalLoop=1;jettySize=auto;html=1;startArrow=classic;startFill=1;" edge="1" parent="1" source="W7zYdzofN13sz3vivxmo-6" target="W7zYdzofN13sz3vivxmo-9">
          <mxGeometry relative="1" as="geometry">
            <Array as="points">
              <mxPoint x="380" y="300" />
            </Array>
          </mxGeometry>
        </mxCell>
        <mxCell id="W7zYdzofN13sz3vivxmo-12" value="" style="edgeStyle=orthogonalEdgeStyle;rounded=0;orthogonalLoop=1;jettySize=auto;html=1;dashed=1;dashPattern=1 4;startArrow=classic;startFill=1;" edge="1" parent="1" source="W7zYdzofN13sz3vivxmo-6" target="W7zYdzofN13sz3vivxmo-11">
          <mxGeometry relative="1" as="geometry" />
        </mxCell>
        <mxCell id="W7zYdzofN13sz3vivxmo-6" value="Wireless&lt;div&gt;Access Point&lt;/div&gt;" style="rounded=0;whiteSpace=wrap;html=1;" vertex="1" parent="1">
          <mxGeometry x="360.5" y="200" width="79.5" height="40" as="geometry" />
        </mxCell>
        <mxCell id="W7zYdzofN13sz3vivxmo-9" value="john-desktop" style="rounded=0;whiteSpace=wrap;html=1;" vertex="1" parent="1">
          <mxGeometry x="240" y="280" width="79.5" height="40" as="geometry" />
        </mxCell>
        <mxCell id="W7zYdzofN13sz3vivxmo-11" value="trigkey" style="rounded=0;whiteSpace=wrap;html=1;" vertex="1" parent="1">
          <mxGeometry x="240" y="200" width="79.5" height="40" as="geometry" />
        </mxCell>
        <mxCell id="W7zYdzofN13sz3vivxmo-19" value="" style="edgeStyle=orthogonalEdgeStyle;rounded=0;orthogonalLoop=1;jettySize=auto;html=1;startArrow=classic;startFill=1;" edge="1" parent="1" source="W7zYdzofN13sz3vivxmo-15" target="W7zYdzofN13sz3vivxmo-6">
          <mxGeometry relative="1" as="geometry" />
        </mxCell>
        <mxCell id="W7zYdzofN13sz3vivxmo-22" value="" style="group" vertex="1" connectable="0" parent="1">
          <mxGeometry x="480" y="210" width="120" height="160" as="geometry" />
        </mxCell>
        <mxCell id="W7zYdzofN13sz3vivxmo-20" value="" style="group" vertex="1" connectable="0" parent="W7zYdzofN13sz3vivxmo-22">
          <mxGeometry y="10" width="120" height="150" as="geometry" />
        </mxCell>
        <mxCell id="W7zYdzofN13sz3vivxmo-4" value="" style="group" vertex="1" connectable="0" parent="W7zYdzofN13sz3vivxmo-20">
          <mxGeometry y="20" width="120" height="130" as="geometry" />
        </mxCell>
        <mxCell id="W7zYdzofN13sz3vivxmo-2" value="pve1" style="whiteSpace=wrap;html=1;aspect=fixed;" vertex="1" parent="W7zYdzofN13sz3vivxmo-4">
          <mxGeometry y="10" width="120" height="120" as="geometry" />
        </mxCell>
        <mxCell id="W7zYdzofN13sz3vivxmo-3" value="OPNSense" style="rounded=0;whiteSpace=wrap;html=1;" vertex="1" parent="W7zYdzofN13sz3vivxmo-4">
          <mxGeometry x="20.5" y="-20" width="80" height="50" as="geometry" />
        </mxCell>
        <mxCell id="W7zYdzofN13sz3vivxmo-17" value="" style="group" vertex="1" connectable="0" parent="W7zYdzofN13sz3vivxmo-20">
          <mxGeometry x="20.5" width="80" height="50" as="geometry" />
        </mxCell>
        <mxCell id="W7zYdzofN13sz3vivxmo-15" value="LAN" style="rounded=0;whiteSpace=wrap;html=1;" vertex="1" parent="W7zYdzofN13sz3vivxmo-17">
          <mxGeometry y="-10" width="30" height="20" as="geometry" />
        </mxCell>
        <mxCell id="W7zYdzofN13sz3vivxmo-16" value="WAN" style="rounded=0;whiteSpace=wrap;html=1;" vertex="1" parent="W7zYdzofN13sz3vivxmo-22">
          <mxGeometry x="70.5" width="30" height="20" as="geometry" />
        </mxCell>
      </root>
    </mxGraphModel>
  </diagram>
</mxfile>
